<svg width="292" height="67" viewBox="0 0 292 67" fill="none" xmlns="http://www.w3.org/2000/svg">
<path fill-rule="evenodd" clip-rule="evenodd" d="M33.4864 66.9729C51.9805 66.9729 66.9729 51.9805 66.9729 33.4864C66.9729 14.9924 51.9805 0 33.4864 0C14.9924 0 0 14.9924 0 33.4864C0 51.9805 14.9924 66.9729 33.4864 66.9729ZM53.443 50.6113L49.5942 46.7625L49.6289 46.7024L49.4045 46.5728L45.4314 42.5997C45.4469 42.5461 45.4621 42.4923 45.4769 42.4384L28.8594 25.8208H28.6526L15.6852 12.8535L12.8534 15.6853L22.9889 25.8208H22.0425C21.9133 26.0052 21.7889 26.1928 21.6693 26.3835L17.8808 24.1967L16.0054 27.445L20.1558 29.8419C19.852 30.9503 19.6888 32.1168 19.6888 33.3228V35.1982H14.0624V38.9492H19.6888C19.6866 40.6814 20.0283 42.3969 20.6941 43.9961L16.0054 46.7024L17.8808 49.9508L22.6183 47.2163C24.6975 49.7856 27.6703 51.4749 30.9417 51.9463V37.0737H34.2418L34.6926 37.5246V51.9444C37.9638 51.4735 40.9365 49.7849 43.016 47.2163L46.2524 49.0843L50.6112 53.4431L53.443 50.6113ZM46.1273 38.9492H51.5719V35.1982H45.9455V33.3228C45.9455 32.1168 45.7823 30.9484 45.4785 29.8419L49.6289 27.445L47.7535 24.1967L43.965 26.3835C43.845 26.1941 43.7212 26.0046 43.5918 25.8208H32.999L46.1273 38.9492ZM29.248 22.0699H40.3191C40.3191 20.0803 39.5287 18.1721 38.1218 16.7652C36.7149 15.3584 34.8068 14.568 32.8172 14.568C30.8275 14.568 28.9194 15.3584 27.5125 16.7652C26.8984 17.3793 26.4018 18.0888 26.0371 18.859L29.248 22.0699Z" fill="white"/>
<path fill-rule="evenodd" clip-rule="evenodd" d="M220.306 7.21094C218.399 7.21094 216.852 8.75733 216.852 10.6649V54.757C216.852 56.6645 218.399 58.2109 220.306 58.2109H288.482C290.389 58.2109 291.936 56.6645 291.936 54.757V10.6649C291.936 8.75733 290.389 7.21094 288.482 7.21094H220.306ZM241.483 20.1296H233.987V24.6636H236.386V29.0156C235.812 28.7619 235.211 28.5689 234.582 28.4365C233.953 28.2931 233.281 28.2214 232.563 28.2214C231.262 28.2214 230.065 28.453 228.973 28.9164C227.892 29.3797 226.959 30.014 226.176 30.8193C225.404 31.6246 224.797 32.5734 224.356 33.6655C223.926 34.7466 223.71 35.916 223.71 37.1736C223.71 38.4312 223.931 39.6116 224.372 40.7148C224.814 41.807 225.426 42.7612 226.209 43.5776C227.003 44.3939 227.947 45.0393 229.039 45.5136C230.142 45.977 231.35 46.2086 232.663 46.2086C233.303 46.2086 233.931 46.1204 234.549 45.9439C235.178 45.7674 235.79 45.5247 236.386 45.2158V45.8777H244.825V41.3436H241.483V20.1296ZM234.913 41.0789C234.329 41.4319 233.672 41.6194 232.944 41.6415C232.37 41.6194 231.83 41.5091 231.322 41.3105C230.826 41.112 230.385 40.8251 229.999 40.4501C229.623 40.0639 229.326 39.6006 229.105 39.0601C228.884 38.5085 228.774 37.8962 228.774 37.2233C228.774 36.5393 228.884 35.927 229.105 35.3865C229.326 34.8459 229.623 34.3826 229.999 33.9965C230.385 33.6104 230.826 33.3125 231.322 33.1029C231.83 32.8933 232.37 32.794 232.944 32.805C233.628 32.794 234.273 32.954 234.88 33.2849C235.498 33.6049 236 34.0572 236.386 34.6418V39.6889C236 40.2625 235.509 40.7259 234.913 41.0789ZM251.511 38.8946L251.461 38.3816H264.087C264.109 38.0948 264.114 37.819 264.103 37.5542C264.103 37.2784 264.087 37.0026 264.054 36.7268C264.021 35.5023 263.811 34.3605 263.425 33.3015C263.039 32.2314 262.487 31.3047 261.77 30.5215C261.053 29.7272 260.17 29.1094 259.122 28.6681C258.085 28.2158 256.894 27.9897 255.548 27.9897C254.202 27.9897 252.978 28.2269 251.875 28.7012C250.771 29.1756 249.823 29.8265 249.028 30.6539C248.234 31.4702 247.616 32.43 247.175 33.5331C246.745 34.6363 246.53 35.8167 246.53 37.0743C246.53 38.332 246.734 39.5234 247.142 40.6486C247.561 41.7739 248.162 42.7557 248.946 43.5941C249.74 44.4325 250.716 45.0999 251.875 45.5964C253.033 46.0818 254.357 46.3245 255.846 46.3245C256.64 46.3245 257.335 46.2803 257.931 46.1921C258.527 46.1149 259.089 45.988 259.619 45.8115C260.148 45.635 260.672 45.4144 261.191 45.1496C261.72 44.8738 262.3 44.5428 262.928 44.1567L261.108 40.7645C260.7 40.9189 260.297 41.0678 259.9 41.2113C259.503 41.3436 259.095 41.465 258.676 41.5753C258.256 41.6746 257.821 41.7573 257.368 41.8235C256.927 41.8787 256.458 41.9062 255.962 41.9062C255.465 41.9062 254.974 41.8456 254.489 41.7242C254.004 41.5918 253.562 41.3988 253.165 41.1451C252.768 40.8913 252.421 40.5769 252.123 40.2018C251.836 39.8268 251.632 39.391 251.511 38.8946ZM253.827 32.3583C254.268 32.2038 254.798 32.1266 255.416 32.1266C256 32.1266 256.486 32.2038 256.872 32.3583C257.269 32.5017 257.595 32.7002 257.848 32.954C258.102 33.2077 258.301 33.5 258.444 33.831C258.587 34.162 258.698 34.515 258.775 34.8901H251.61C251.709 34.526 251.847 34.1785 252.023 33.8475C252.2 33.5166 252.437 33.2243 252.735 32.9705C253.033 32.7058 253.397 32.5017 253.827 32.3583ZM274.942 28.7343H265.99V33.2684H267.893L273.006 45.9439H278.053L283.166 33.2684H285.45V28.7343H276.497V33.2684H278.351L275.654 40.6321L272.857 33.2684H274.942V28.7343Z" fill="white"/>
<text x="50%" y="60%" dominant-baseline="middle" text-anchor="middle" fill="white" font-size="26"  font-weight="bold" font-family="Arial, sans-serif">FullStack</text>

</svg>
