<svg width="247" height="40" viewBox="0 0 170 40" fill="none" xmlns="http://www.w3.org/2000/svg">
<rect x="144" y="2" width="93" height="36" rx="2.4381" fill="url(#paint0_linear_18_105)"/>
<path d="M156.095 11.8248H161.386V26.7995H163.746V30H157.788V29.5328C157.368 29.7508 156.936 29.9221 156.492 30.0467C156.056 30.1713 155.612 30.2336 155.16 30.2336C154.234 30.2336 153.381 30.0701 152.602 29.743C151.831 29.4082 151.165 28.9526 150.605 28.3764C150.052 27.8001 149.62 27.1266 149.308 26.3556C148.997 25.5769 148.841 24.7437 148.841 23.856C148.841 22.9682 148.993 22.1428 149.297 21.3797C149.608 20.6087 150.036 19.939 150.581 19.3706C151.134 18.8021 151.792 18.3544 152.555 18.0273C153.326 17.7002 154.171 17.5367 155.09 17.5367C155.596 17.5367 156.071 17.5873 156.515 17.6886C156.959 17.782 157.383 17.9183 157.788 18.0974V15.0254H156.095V11.8248ZM155.359 27.0097C155.873 26.9942 156.336 26.8618 156.749 26.6126C157.169 26.3634 157.516 26.0364 157.788 25.6314V22.0688C157.516 21.6561 157.162 21.3368 156.725 21.111C156.297 20.8774 155.842 20.7645 155.359 20.7723C154.954 20.7645 154.572 20.8346 154.214 20.9825C153.864 21.1305 153.552 21.3407 153.28 21.6133C153.015 21.8858 152.805 22.2129 152.649 22.5944C152.493 22.976 152.415 23.4082 152.415 23.891C152.415 24.366 152.493 24.7982 152.649 25.1876C152.805 25.5691 153.015 25.8962 153.28 26.1687C153.552 26.4335 153.864 26.636 154.214 26.7761C154.572 26.9163 154.954 26.9942 155.359 27.0097ZM168.43 24.7086L168.465 25.0707C168.55 25.4212 168.694 25.7288 168.897 25.9935C169.107 26.2583 169.352 26.4802 169.633 26.6593C169.913 26.8384 170.224 26.9747 170.567 27.0681C170.91 27.1538 171.256 27.1966 171.607 27.1966C171.957 27.1966 172.288 27.1772 172.6 27.1382C172.919 27.0915 173.226 27.0331 173.522 26.963C173.818 26.8851 174.106 26.7995 174.387 26.706C174.667 26.6048 174.951 26.4997 175.239 26.3907L176.524 28.7852C176.08 29.0578 175.672 29.2914 175.298 29.486C174.932 29.6729 174.562 29.8287 174.188 29.9533C173.814 30.0779 173.417 30.1674 172.997 30.2219C172.576 30.2842 172.086 30.3154 171.525 30.3154C170.474 30.3154 169.539 30.1441 168.722 29.8014C167.904 29.451 167.215 28.9799 166.654 28.3881C166.101 27.7962 165.677 27.1032 165.381 26.3089C165.093 25.5146 164.949 24.6736 164.949 23.7859C164.949 22.8981 165.101 22.0649 165.404 21.2862C165.716 20.5075 166.152 19.83 166.712 19.2538C167.273 18.6697 167.943 18.2103 168.722 17.8754C169.5 17.5406 170.365 17.3732 171.315 17.3732C172.265 17.3732 173.106 17.5328 173.838 17.8521C174.577 18.1636 175.2 18.5996 175.707 19.1603C176.213 19.7132 176.602 20.3673 176.875 21.1227C177.147 21.8702 177.295 22.6762 177.319 23.5406C177.342 23.7353 177.354 23.9299 177.354 24.1246C177.361 24.3115 177.357 24.5062 177.342 24.7086H168.43ZM171.221 20.2933C170.785 20.2933 170.411 20.3479 170.1 20.4569C169.796 20.5581 169.539 20.7022 169.329 20.8891C169.119 21.0682 168.951 21.2745 168.827 21.5081C168.702 21.7418 168.605 21.987 168.535 22.244H173.592C173.538 21.9793 173.46 21.7301 173.359 21.4965C173.258 21.2628 173.117 21.0565 172.938 20.8774C172.759 20.6983 172.529 20.5581 172.249 20.4569C171.977 20.3479 171.634 20.2933 171.221 20.2933ZM178.685 17.8988H185.004V21.0993H183.533L185.507 26.2972L187.411 21.0993H186.102V17.8988H192.422V21.0993H190.81L187.2 30.0467H183.638L180.028 21.0993H178.685V17.8988Z" fill="black"/>
<text x="35%" y="60%" dominant-baseline="middle" text-anchor="middle" fill="white" font-size="26"  font-weight="bold" font-family="Arial, sans-serif">FullStack</text>
  <g transform="translate(-40, 0)">
  <path x="0%" y="50%" fill-rule="evenodd" clip-rule="evenodd" d="M36.2071 33.4165L40 37.2093L37.2093 40L32.9141 35.7048L29.7244 33.8638C27.6751 36.395 24.7456 38.0591 21.522 38.5232V24.3127L21.0778 23.8685H17.8255V38.525C14.6016 38.0605 11.672 36.3957 9.62302 33.8638L4.95437 36.5585L3.10614 33.3573L7.72673 30.6903C7.07065 29.1143 6.73392 27.4238 6.73607 25.7167H1.19137V22.0203H6.73607V20.172C6.73607 18.9836 6.89687 17.834 7.19628 16.7417L3.10614 14.3797L4.95437 11.1785L8.68781 13.3336C8.80564 13.1456 8.92828 12.9607 9.05561 12.7791H9.98834L2.65503e-06 2.79074L2.7907 3.95208e-05L15.5697 12.7791H15.7731L32.1495 29.1555C32.135 29.2085 32.12 29.2614 32.1048 29.3141L36.0204 33.2297L36.2413 33.3573L36.2071 33.4165ZM38.1561 25.7167H32.7902L19.8525 12.7791H30.2918C30.4194 12.9602 30.5413 13.1469 30.6596 13.3336L34.3931 11.1785L36.2413 14.3797L32.1512 16.7417C32.4506 17.8322 32.6114 18.9836 32.6114 20.172V22.0203H38.1561V25.7167ZM27.0667 9.08261H16.1561L12.9921 5.91859C13.3515 5.15954 13.8409 4.46021 14.4461 3.85501C15.8326 2.46856 17.713 1.68967 19.6737 1.68967C21.6345 1.68967 23.5149 2.46856 24.9013 3.85501C26.2878 5.24146 27.0667 7.12188 27.0667 9.08261Z" fill="url(#paint1_linear_18_105)"/>
  </g>
<defs>
<linearGradient id="paint0_linear_18_105" x1="144" y1="38" x2="177.466" y2="-11.2687" gradientUnits="userSpaceOnUse">
<stop stop-color="#4070F4"/>
<stop offset="1" stop-color="#2BD67B"/>
</linearGradient>
<linearGradient id="paint1_linear_18_105" x1="0" y1="40" x2="40" y2="0" gradientUnits="userSpaceOnUse">
<stop stop-color="#4070F4"/>
<stop offset="1" stop-color="#2BD67B"/>
</linearGradient>
</defs>
</svg>