<svg width="202" height="51" viewBox="0 0 202 51" fill="none" xmlns="http://www.w3.org/2000/svg">
<rect x="126.084" width="75.0833" height="51" rx="3.45397" fill="url(#paint0_linear_37_184)"/>
<path d="M143.218 12.9185H150.714V34.1326H154.056V38.6667H145.617V38.0048C145.021 38.3136 144.409 38.5563 143.78 38.7328C143.163 38.9094 142.534 38.9976 141.894 38.9976C140.581 38.9976 139.373 38.7659 138.27 38.3026C137.178 37.8282 136.235 37.1829 135.44 36.3665C134.657 35.5502 134.045 34.5959 133.604 33.5038C133.162 32.4006 132.942 31.2202 132.942 29.9626C132.942 28.705 133.157 27.5356 133.587 26.4545C134.028 25.3624 134.635 24.4136 135.407 23.6083C136.191 22.803 137.123 22.1687 138.204 21.7053C139.296 21.242 140.493 21.0103 141.795 21.0103C142.512 21.0103 143.185 21.082 143.813 21.2254C144.442 21.3578 145.044 21.5509 145.617 21.8046V17.4526H143.218V12.9185ZM142.175 34.4305C142.903 34.4084 143.56 34.2209 144.144 33.8678C144.74 33.5148 145.231 33.0515 145.617 32.4778V27.4308C145.231 26.8461 144.729 26.3938 144.111 26.0739C143.505 25.7429 142.859 25.583 142.175 25.594C141.602 25.583 141.061 25.6823 140.554 25.8919C140.057 26.1015 139.616 26.3993 139.23 26.7854C138.855 27.1716 138.557 27.6349 138.336 28.1755C138.116 28.716 138.005 29.3283 138.005 30.0122C138.005 30.6852 138.116 31.2974 138.336 31.849C138.557 32.3896 138.855 32.8529 139.23 33.239C139.616 33.6141 140.057 33.9009 140.554 34.0995C141.061 34.2981 141.602 34.4084 142.175 34.4305ZM160.692 31.1706L160.742 31.6836C160.863 32.18 161.067 32.6157 161.354 32.9908C161.652 33.3659 161.999 33.6803 162.396 33.934C162.794 34.1878 163.235 34.3808 163.72 34.5132C164.206 34.6345 164.697 34.6952 165.193 34.6952C165.689 34.6952 166.158 34.6676 166.6 34.6125C167.052 34.5463 167.488 34.4636 167.907 34.3643C168.326 34.254 168.734 34.1326 169.131 34.0002C169.529 33.8568 169.931 33.7079 170.339 33.5534L172.16 36.9457C171.531 37.3318 170.952 37.6628 170.422 37.9386C169.904 38.2033 169.38 38.424 168.85 38.6005C168.321 38.777 167.758 38.9038 167.162 38.9811C166.566 39.0693 165.871 39.1134 165.077 39.1134C163.588 39.1134 162.264 38.8707 161.106 38.3853C159.947 37.8889 158.971 37.2215 158.177 36.3831C157.394 35.5447 156.792 34.5628 156.373 33.4376C155.965 32.3124 155.761 31.1209 155.761 29.8633C155.761 28.6057 155.976 27.4253 156.406 26.3221C156.848 25.2189 157.465 24.2592 158.26 23.4428C159.054 22.6154 160.003 21.9646 161.106 21.4902C162.209 21.0158 163.433 20.7787 164.779 20.7787C166.125 20.7787 167.317 21.0048 168.354 21.4571C169.402 21.8984 170.284 22.5162 171.001 23.3104C171.718 24.0937 172.27 25.0204 172.656 26.0904C173.042 27.1495 173.252 28.2913 173.285 29.5158C173.318 29.7916 173.334 30.0674 173.334 30.3432C173.346 30.608 173.34 30.8837 173.318 31.1706H160.692ZM164.647 24.9156C164.029 24.9156 163.5 24.9928 163.058 25.1472C162.628 25.2906 162.264 25.4947 161.966 25.7595C161.668 26.0132 161.431 26.3056 161.255 26.6365C161.078 26.9675 160.94 27.315 160.841 27.679H168.006C167.929 27.3039 167.819 26.9509 167.675 26.62C167.532 26.289 167.333 25.9967 167.079 25.7429C166.826 25.4892 166.5 25.2906 166.103 25.1472C165.717 24.9928 165.232 24.9156 164.647 24.9156ZM175.221 21.5233H184.173V26.0574H182.088L184.885 33.4211L187.582 26.0574H185.729V21.5233H194.681V26.0574H192.397L187.284 38.7328H182.237L177.124 26.0574H175.221V21.5233Z" fill="black"/>
<text x="35%" y="60%" dominant-baseline="middle" text-anchor="middle" fill="white" font-size="26"  font-weight="bold" font-family="Arial, sans-serif">FullStack</text>

<defs>
<linearGradient id="paint0_linear_37_184" x1="126.084" y1="51" x2="173.493" y2="-18.7973" gradientUnits="userSpaceOnUse">
<stop stop-color="#4070F4"/>
<stop offset="1" stop-color="#2BD67B"/>
</linearGradient>
</defs>
</svg>
